<?xml version="1.0" encoding="utf-8"?>
<svg viewBox="0 0 500 500" xmlns="http://www.w3.org/2000/svg">
  <text style="font-size: 36; font-family: Roboto; white-space: pre;" transform="matrix(1, 0, 0, 1, 213.82291, 48.191159)"/>
  <text style="font-size: 36; font-family: Roboto; white-space: pre;" transform="matrix(1, 0, 0, 1, 210.583164, 54.130673)"/>
  <text style="font-size: 36; font-family: Roboto; white-space: pre;" transform="matrix(1, 0, 0, 1, 210.583164, 54.130673)"/>
  <text style="font-size: 36; font-family: Roboto; white-space: pre;" transform="matrix(1, 0, 0, 1, 210.583164, 54.130673)"/>
  <text style="font-size: 36; font-family: Roboto; white-space: pre;" transform="matrix(1, 0, 0, 1, 210.583164, 54.670628)"/>
  <g class="rocket-can" transform="matrix(0.930964, 0, 0, 0.888496, -11.737004, -19.947111)" style="">
    <path d="M221.417 544.335C100.059 511.628 77.3961 466.528 77.3961 466.528C69.0477 503.319 137.617 540.212 212.105 559.313C367.801 599.238 369.573 538.956 369.573 538.956C369.573 538.956 330.868 573.831 221.417 544.335Z" fill="#38312B"/>
    <path d="M479.666 134.003C482.773 116.534 419.666 84.9958 336.295 62.9418C252.662 40.817 182.9 36.8919 177.366 53.803L174.111 66.1018C174.111 66.1018 272.831 141.26 312.144 151.087C352.415 161.154 477.862 140.813 477.862 140.813" fill="#38312B"/>
    <path d="M471.127 131.627C471.127 131.627 422.853 97.001 341.826 75.5668C232.368 46.6128 184.497 56.1575 184.497 56.1575C184.497 56.1575 196.257 80.4204 324.422 113.97C423.816 139.991 471.127 131.627 471.127 131.627Z" fill="#67452B"/>
    <path d="M77.6685 465.976C77.6685 465.976 99.45 511.678 220.797 544.416C330.237 573.942 370.024 538.653 370.024 538.653L478.07 140.066C478.07 140.066 433.329 153.856 324.852 126.249C222.173 100.114 174.494 64.7492 174.494 64.7492L77.6685 465.976Z" fill="#006561"/>
    <path d="M432.44 189.115L356.594 483.701C211.622 504.789 120.43 423.528 120.43 423.528L192.337 131.401C192.337 131.401 300.288 178.05 432.44 189.115Z" fill="#B58C51"/>
    <path d="M416.645 201.001C416.645 201.001 348.292 468.197 347.697 469.597C224.73 482.674 134.293 416.193 134.293 416.193L198.803 150.258C198.803 150.258 300.878 192.532 416.645 201.001Z" fill="black"/>
    <path d="M220.441 265.024L204.467 260.74L210.678 256.841L199.135 299.951L187.919 296.943L199.461 253.833L202.955 260.334L186.949 256.043L189.223 247.546L222.716 256.527L220.441 265.024ZM233.41 309.985C230.469 309.197 227.824 307.936 225.474 306.204C223.15 304.457 221.262 302.298 219.812 299.729C218.362 297.158 217.457 294.229 217.1 290.94C216.768 287.636 217.125 284.033 218.17 280.131C219.215 276.229 220.703 272.941 222.634 270.267C224.567 267.592 226.789 265.513 229.303 264.027C231.838 262.549 234.545 261.644 237.424 261.315C240.326 260.992 243.267 261.23 246.25 262.029C249.232 262.829 251.889 264.092 254.218 265.818C256.568 267.551 258.472 269.691 259.928 272.24C261.384 274.789 262.27 277.702 262.586 280.979C262.923 284.263 262.569 287.855 261.524 291.757C260.48 295.659 258.978 298.955 257.02 301.645C255.087 304.32 252.84 306.404 250.279 307.899C247.739 309.398 245.016 310.32 242.11 310.666C239.23 310.995 236.33 310.768 233.41 309.985ZM235.778 301.143C237.542 301.616 239.327 301.589 241.134 301.062C242.948 300.514 244.635 299.257 246.196 297.292C247.779 295.334 249.076 292.466 250.087 288.69C251.103 284.893 251.41 281.771 251.007 279.324C250.609 276.857 249.758 274.954 248.45 273.614C247.149 272.253 245.626 271.339 243.883 270.871C242.139 270.404 240.354 270.431 238.525 270.952C236.724 271.458 235.035 272.681 233.457 274.619C231.907 276.542 230.624 279.402 229.607 283.198C228.59 286.996 228.268 290.135 228.638 292.618C229.036 295.085 229.883 297.01 231.178 298.392C232.501 299.759 234.034 300.675 235.778 301.143ZM264.121 317.377L269.932 269.189L281.494 272.29L274.089 317.858L272.539 317.342L291.577 274.994L305.44 278.711L300.738 324.903L299.138 324.575L315.49 281.406L327.054 284.507L308.011 329.147L290.807 324.533L295.936 284.189L297.07 284.493L281.355 321.999L264.121 317.377ZM331.182 335.361L320.218 332.42L332.645 286.006L349.943 290.645L352.702 337.219L350.537 337.111L362.105 293.906L373.037 296.838L360.611 343.252L343.187 338.58L340.384 292.163L342.708 292.314L331.182 335.361Z" fill="white"/>
    <path d="M245.491 195.969C248.852 196.871 251.466 198.077 253.335 199.591C255.204 201.104 256.404 202.843 256.936 204.806C257.489 206.775 257.468 208.872 256.874 211.096C256.273 213.341 255.314 215.152 253.999 216.531C252.691 217.889 251.243 218.839 249.657 219.38C248.098 219.906 246.611 220.036 245.197 219.769C246.594 220.188 247.963 220.96 249.305 222.085C250.647 223.209 251.644 224.701 252.293 226.562C252.944 228.423 252.914 230.675 252.207 233.318C251.55 235.772 250.458 237.874 248.932 239.624C247.411 241.352 245.345 242.507 242.736 243.088C240.153 243.654 236.918 243.417 233.032 242.375L213.719 237.197L226.145 190.782L245.491 195.969ZM231.129 215.052L228.251 211.042L237.42 213.502C239.604 214.087 241.33 214.033 242.597 213.338C243.884 212.649 244.733 211.539 245.142 210.008C245.418 208.98 245.428 208.06 245.173 207.25C244.937 206.445 244.416 205.743 243.608 205.144C242.801 204.545 241.704 204.06 240.317 203.688L229.51 200.791L235.973 196.958L231.129 215.052ZM233.11 233.257C235.253 233.831 236.983 233.755 238.303 233.029C239.623 232.305 240.497 231.145 240.924 229.55C241.148 228.711 241.207 227.906 241.098 227.135C241.009 226.37 240.75 225.659 240.318 225.004C239.906 224.353 239.327 223.782 238.581 223.29C237.835 222.798 236.937 222.41 235.886 222.129L225.994 219.476L230.488 217.444L225.324 236.733L221.642 230.181L233.11 233.257ZM268.696 211.298L275.158 207.467L270.162 226.127L268.468 222.366L285.387 226.904L283.112 235.4L266.192 230.863L269.53 228.486L264.501 247.273L260.819 240.72L283.787 246.88L281.513 255.375L252.306 247.543L264.732 201.129L293.939 208.961L291.664 217.458L268.696 211.298ZM283.272 255.848L306.893 212.402L324.726 217.184L323.444 266.621L311.913 263.528L313.998 221.558L314.06 221.574L294.773 258.932L283.272 255.848ZM294.904 247.972L297.204 239.381L319.7 245.413L317.4 254.005L294.904 247.972ZM336.935 270.238L325.971 267.298L338.397 220.884L355.695 225.522L358.456 272.096L356.289 271.988L367.857 228.784L378.789 231.715L366.363 278.129L348.939 273.456L346.137 227.04L348.461 227.19L336.935 270.238Z" fill="white"/>
    <path d="M204.557 315.316C208.205 316.294 211.011 317.6 212.977 319.232C214.942 320.865 216.2 322.719 216.751 324.796C217.307 326.85 217.283 329.008 216.678 331.268C216.061 333.573 215.076 335.449 213.723 336.898C212.375 338.324 210.894 339.326 209.279 339.905C207.686 340.488 206.19 340.663 204.793 340.431C206.144 340.84 207.502 341.615 208.868 342.758C210.256 343.906 211.282 345.44 211.946 347.359C212.632 349.283 212.608 351.617 211.874 354.361C211.204 356.863 210.078 359.042 208.498 360.9C206.923 362.736 204.754 363.977 201.99 364.623C199.254 365.254 195.776 365.004 191.557 363.873L170.297 358.171L183.297 309.615L204.557 315.316ZM189.979 335.328L186.562 330.672L196.055 333.218C198.033 333.748 199.56 333.675 200.635 332.999C201.739 332.307 202.464 331.314 202.811 330.019C203.052 329.12 203.071 328.302 202.868 327.565C202.686 326.834 202.233 326.195 201.508 325.648C200.789 325.079 199.77 324.617 198.452 324.263L187.311 321.276L194.914 316.894L189.979 335.328ZM191.606 353.265C193.584 353.796 195.139 353.706 196.27 352.999C197.43 352.275 198.188 351.243 198.547 349.905C198.723 349.246 198.783 348.58 198.728 347.906C198.674 347.233 198.48 346.593 198.147 345.987C197.837 345.386 197.358 344.846 196.709 344.366C196.082 343.892 195.274 343.523 194.285 343.258L183.936 340.482L189.221 338.16L184.003 357.648L179.608 350.048L191.606 353.265ZM209.77 368.756L234.076 323.232L255.205 328.898L253.445 380.468L239.832 376.817L242.5 333.994L242.566 334.011L223.384 372.408L209.77 368.756ZM222.391 361.203L225.062 351.229L249.058 357.663L246.387 367.638L222.391 361.203ZM275.771 387.372C272.167 386.407 269.09 384.969 266.539 383.062C263.994 381.133 262.191 378.803 261.132 376.073C260.095 373.349 260.029 370.297 260.934 366.917C261.01 366.631 261.087 366.346 261.163 366.06C261.239 365.776 261.316 365.49 261.392 365.205L274.676 368.767C274.612 369.009 274.546 369.25 274.482 369.491C274.418 369.733 274.352 369.974 274.288 370.216C273.877 371.752 274.006 373.162 274.674 374.447C275.364 375.738 276.688 376.645 278.644 377.17C280.534 377.677 282.09 377.801 283.314 377.54C284.565 377.265 285.362 376.49 285.703 375.217C285.955 374.273 285.674 373.257 284.859 372.168C284.065 371.085 282.897 369.948 281.355 368.759C279.835 367.575 278.109 366.371 276.175 365.147C274.084 363.81 272.169 362.25 270.433 360.467C268.719 358.69 267.474 356.651 266.701 354.35C265.934 352.027 265.94 349.407 266.722 346.487C267.527 343.48 269.049 341.137 271.289 339.456C273.535 337.753 276.217 336.709 279.336 336.322C282.476 335.94 285.771 336.213 289.221 337.137C292.803 338.098 295.85 339.515 298.363 341.389C300.898 343.267 302.698 345.515 303.765 348.13C304.832 350.744 304.935 353.654 304.078 356.858C304.002 357.143 303.928 357.417 303.858 357.68C303.787 357.944 303.713 358.218 303.637 358.503L290.354 354.942C290.383 354.832 290.427 354.668 290.486 354.448C290.551 354.206 290.598 354.031 290.627 353.921C291.009 352.494 290.925 351.178 290.377 349.973C289.851 348.773 288.609 347.911 286.653 347.386C284.72 346.868 283.131 346.818 281.889 347.238C280.668 347.664 279.878 348.546 279.519 349.884C279.267 350.828 279.483 351.78 280.169 352.739C280.859 353.677 281.892 354.66 283.265 355.687C284.661 356.72 286.242 357.85 288.01 359.076C290.679 360.897 292.955 362.731 294.839 364.577C296.73 366.401 298.041 368.411 298.772 370.607C299.525 372.808 299.511 375.368 298.729 378.286C297.913 381.337 296.395 383.706 294.177 385.393C291.965 387.057 289.261 388.05 286.067 388.369C282.895 388.695 279.463 388.363 275.771 387.372ZM355.611 355.823L342.611 404.38L329.294 400.808L335.305 378.357L340.432 383.225L313.568 376.021L320.387 374.568L314.429 396.822L301.112 393.251L314.113 344.695L327.429 348.265L321.383 370.848L316.221 366.112L343.085 373.316L336.257 374.802L342.295 352.252L355.611 355.823Z" fill="#00919E"/>
    <mask id="mask0_94_356" style="mask-type: luminance" maskUnits="userSpaceOnUse" x="134" y="150" width="283" height="322">
      <path d="M416.645 201.001C416.645 201.001 348.292 468.197 347.697 469.597C224.73 482.674 134.293 416.193 134.293 416.193L198.803 150.258C198.803 150.258 300.878 192.532 416.645 201.001Z" fill="white"/>
    </mask>
    <g mask="url(#mask0_94_356)">
      <path d="M291.087 400.795C290.896 400.736 290.691 400.685 290.492 400.635C289.847 403.521 289.197 406.409 288.54 409.304C287.502 409.401 286.467 409.492 285.385 409.596C285.404 409.162 285.54 408.791 285.616 408.405C285.696 408.006 285.792 407.613 285.882 407.201C285.685 407.149 285.499 407.099 285.296 407.042C285.125 407.79 284.959 408.539 284.8 409.258C284.56 409.328 284.348 409.389 284.129 409.45C284.011 409.482 283.904 409.516 283.786 409.544C283.521 409.606 283.323 409.738 283.144 409.929C282.85 410.249 282.596 410.603 282.214 410.859C282.101 410.937 282.109 411.062 282.133 411.201C282.193 411.582 282.218 411.972 282.252 412.355C282.268 412.559 282.181 412.69 282.051 412.825C281.621 413.283 281.232 413.763 280.778 414.194C280.599 414.368 280.514 414.55 280.466 414.764C278.008 425.852 275.47 436.916 272.857 447.955C272.82 448.092 272.785 448.234 272.752 448.385C272.332 448.311 271.955 448.178 271.565 447.958C271.589 447.856 271.619 447.737 271.647 447.614C272.986 441.921 274.304 436.227 275.602 430.521C275.602 430.506 275.603 430.492 275.607 430.48C275.758 430.167 275.611 429.943 275.266 429.778C275.373 429.289 275.485 428.796 275.597 428.296C275.317 428.218 275.051 428.148 274.747 428.071C274.786 427.889 274.816 427.724 274.851 427.558C274.888 427.392 274.926 427.22 274.966 427.052C274.999 426.885 275.043 426.717 275.086 426.539C274.795 426.462 274.53 426.39 274.23 426.312C274.358 425.771 274.436 425.247 274.31 424.689C274.181 424.125 273.865 423.63 273.464 423.201C273.071 422.782 272.547 422.459 271.98 422.201C272.017 422.021 272.058 421.838 272.099 421.645C271.911 421.596 271.74 421.552 271.526 421.494C271.559 421.261 271.617 421.038 271.658 420.818C271.707 420.597 271.755 420.372 271.808 420.133C271.586 420.076 271.387 420.027 271.137 419.961C271.048 420.393 270.955 420.836 270.858 421.291C270.715 421.262 270.602 421.243 270.463 421.215C270.422 421.395 270.38 421.588 270.341 421.773C269.599 421.626 268.947 421.746 268.379 422.044C267.91 422.291 267.566 422.674 267.303 423.108C267.202 423.279 267.187 423.488 267.08 423.635C266.959 423.807 266.94 423.995 266.872 424.205C266.467 424.104 266.057 423.999 265.636 423.896C265.515 424.476 265.4 425.024 265.281 425.565C265.028 425.686 264.789 425.803 264.495 425.942C264.422 426.283 264.337 426.692 264.246 427.125C264.083 427.083 263.929 427.046 263.76 427.006C263.726 427.162 263.704 427.282 263.673 427.405C262.911 431.042 262.135 434.667 261.35 438.297C261.282 439.468 260.939 440.575 260.708 441.712C260.474 442.86 260.215 444.003 259.965 445.143C259.933 445.28 259.902 445.418 259.85 445.654C259.706 445.168 259.586 444.777 259.444 444.318C259.237 444.62 259.072 444.858 258.91 445.1C258.719 445.378 258.719 445.377 258.395 445.298C258.365 445.288 258.336 445.282 258.274 445.268C259.11 441.407 259.936 437.55 260.759 433.673C260.402 433.582 260.074 433.501 259.712 433.412C259.822 432.895 259.928 432.399 260.034 431.881C259.673 431.792 259.349 431.712 258.988 431.624C259.025 431.456 259.07 431.306 259.078 431.152C259.088 430.862 259.286 430.677 259.473 430.492C259.728 430.236 260.011 430 260.319 429.718C259.572 429.534 258.877 429.361 258.182 429.194C257.924 429.132 257.676 429.034 257.415 429.013C256.42 428.932 255.466 428.599 254.491 428.382C253.503 428.166 252.527 427.852 251.536 427.706C250.535 427.559 249.561 427.262 248.548 427.09C248.361 428.063 248.172 429.041 247.978 430.047C247.721 429.947 247.475 429.879 247.246 429.766C246.97 429.623 246.678 429.498 246.387 429.431C243.397 428.724 240.408 428.061 237.382 427.4C237.284 427.936 237.19 428.467 237.09 429.015C236.32 428.85 235.581 428.69 234.806 428.522C234.785 428.659 234.759 428.783 234.742 428.908C234.383 430.913 234.025 432.919 233.662 434.925C233.621 435.17 233.618 435.164 233.29 435.203C233.148 435.215 233.003 435.299 232.866 435.276C232.542 435.221 232.269 435.373 231.953 435.394C231.685 435.407 231.38 435.471 231.127 435.618C230.914 435.739 230.675 435.837 230.447 435.946C230.397 436.227 230.351 436.492 230.301 436.776C230.057 436.721 229.826 436.671 229.583 436.617C229.467 437.27 229.353 437.905 229.237 438.565C228.76 438.464 228.302 438.37 227.825 438.27C228.694 433.311 229.542 428.344 230.379 423.378C230.157 423.268 229.963 423.151 229.73 423.105C229.501 423.061 229.274 422.979 229.069 422.88C228.593 422.656 228.065 422.579 227.599 422.324C227.428 422.234 227.217 422.209 227.024 422.135C226.828 422.061 226.636 421.945 226.423 421.895C226.21 421.846 225.999 421.776 225.807 421.685C225.299 421.435 224.76 421.402 224.23 421.287C223.505 421.126 222.771 420.991 222.021 420.841C221.975 421.149 221.932 421.444 221.878 421.765C221.771 421.755 221.663 421.768 221.598 421.721C221.377 421.577 221.128 421.567 220.887 421.502C220.568 421.417 220.253 421.307 219.938 421.229C219.617 421.154 219.274 421.157 218.986 421.031C218.64 420.874 218.29 420.829 217.933 420.752C217.456 420.65 216.959 420.716 216.481 420.561C216.162 420.632 215.828 420.536 215.504 420.62C215.249 420.692 215.12 420.783 215.091 421.03C214.975 421.901 214.834 422.77 214.705 423.648C214.698 423.704 214.69 423.761 214.683 423.815C214.388 423.805 214.116 423.795 213.824 423.791C213.366 426.875 212.904 429.969 212.426 433.105C212.168 433.071 211.92 433.015 211.674 432.974C211.427 432.924 211.172 432.891 210.928 432.825C210.791 432.787 210.673 432.688 210.539 432.619C210.351 432.511 210.159 432.397 209.959 432.303C209.806 432.233 209.746 432.153 209.773 432.005C209.806 431.816 209.832 431.633 209.863 431.422C209.483 431.284 209.118 431.117 208.725 430.996C208.524 430.938 208.322 430.854 208.115 430.814C207.919 430.773 207.771 430.627 207.548 430.618C207.333 430.608 207.114 430.542 206.893 430.501C206.696 430.465 206.486 430.434 206.278 430.394C205.873 430.307 205.478 430.329 205.09 430.442C204.962 430.477 204.813 430.578 204.688 430.397C204.266 430.27 203.867 430.09 203.442 429.962C202.866 429.787 202.285 429.68 201.701 429.586C201.505 429.555 201.313 429.571 201.114 429.569C200.92 429.568 200.742 429.465 200.524 429.535C200.346 429.595 200.117 429.515 199.897 429.522C199.469 429.535 199.055 429.572 198.636 429.633C198.52 429.657 198.449 429.637 198.346 429.572C197.72 429.16 197.096 428.74 196.495 428.295C196.202 428.073 195.893 427.884 195.587 427.674C195.292 427.477 194.989 427.286 194.716 427.077C194.61 426.993 194.506 426.832 194.506 426.713C194.508 426.301 194.378 425.895 194.353 425.485C194.34 425.283 194.257 425.087 194.213 424.89C194.005 424.858 193.815 424.825 193.586 424.783C193.599 424.564 193.636 424.341 193.665 424.119C193.688 423.889 193.719 423.66 193.749 423.419C193.501 423.377 193.267 423.34 192.999 423.294C193.315 420.706 193.629 418.131 193.933 415.536C192.897 415.371 191.9 415.21 190.867 415.047C190.908 414.672 190.951 414.304 190.993 413.927C187.947 413.446 184.928 412.991 181.899 412.542C181.882 412.733 181.86 412.911 181.837 413.12C181.301 413.175 180.777 413.231 180.237 413.281C179.869 416.999 179.488 420.691 179.098 424.399C178.444 424.301 177.797 424.211 177.146 424.116C177.11 424.429 177.083 424.733 177.051 425.058C176.571 424.989 176.109 424.924 175.628 424.857C175.523 425.906 175.421 426.921 175.314 427.992C175.091 427.823 174.896 427.684 174.703 427.543C174.057 427.069 173.404 426.588 172.75 426.114C172.634 426.03 172.499 425.943 172.365 425.911C171.733 425.746 171.142 425.434 170.485 425.385C170.035 425.159 169.544 425.164 169.073 425.124C168.178 425.052 167.29 425.075 166.424 425.248C165.766 425.375 165.168 425.626 164.578 425.889C164.401 425.966 164.267 426.118 164.106 426.243C163.743 426.11 163.459 425.881 163.147 425.692C163.124 425.675 163.109 425.644 163.084 425.629C162.572 425.29 162.053 424.962 161.532 424.63C161.396 424.538 161.206 424.586 161.085 424.449C160.604 424.386 160.143 424.21 159.682 424.083C158.883 423.862 158.073 423.839 157.272 423.745C156.943 423.702 156.593 423.744 156.253 423.761C155.914 423.781 155.58 423.82 155.245 423.848C154.838 423.876 154.437 423.956 154.037 423.999C153.69 424.039 153.417 424.252 153.171 424.49C151.529 423.688 149.839 423.501 148.124 423.926C147.944 423.759 147.76 423.605 147.587 423.436C147.388 423.239 147.113 423.188 146.872 423.114C146.444 422.983 146.049 422.759 145.603 422.696C145.521 422.565 145.376 422.62 145.265 422.585C145.151 422.55 145.047 422.493 144.933 422.469C144.601 422.401 144.276 422.329 143.942 422.283C143.601 422.23 143.254 422.208 142.913 422.175C142.861 422.173 142.815 422.164 142.768 422.16C142.2 432.055 141.574 441.929 140.883 451.797C205.882 458.232 271.253 473.127 335.077 496.743C338.153 488.075 341.171 479.406 344.147 470.694C343.85 470.693 343.693 470.915 343.44 471.011C343.084 470.388 342.528 470.169 341.848 470.165C341.613 470.162 341.373 470.138 341.14 470.177C341.02 470.189 340.947 470.154 340.853 470.081C340.624 469.894 340.474 469.62 340.174 469.488C340.125 469.469 340.101 469.331 340.108 469.252C340.113 469.156 340.167 469.062 340.198 468.965C340.988 466.611 341.772 464.261 342.552 461.904C342.601 461.77 342.641 461.633 342.692 461.485C341.507 461.058 340.354 460.639 339.171 460.22C339.307 459.813 339.438 459.418 339.565 459.026C339.193 458.825 337.101 458.062 336.025 457.738C335.944 457.991 335.862 458.249 335.769 458.546C335.414 458.424 335.077 458.237 334.741 458.204C334.415 458.169 334.08 458.119 333.756 458.092C333.426 458.062 333.091 457.98 332.74 457.962C331.968 460.392 331.192 462.821 330.413 465.256C330.272 465.25 330.294 465.124 330.237 465.073C330.171 465.011 330.096 464.949 330.056 464.881C329.911 464.625 329.602 464.575 329.407 464.389C329.054 464.368 328.688 464.27 328.347 464.407C328.197 464.463 328.048 464.537 327.904 464.603C327.462 464.307 327.077 463.968 326.579 463.766C326.449 463.714 326.332 463.595 326.177 463.545C325.794 463.419 325.413 463.25 325.019 463.166C324.842 463.137 324.662 463.093 324.482 463.066C324.291 463.037 324.1 463.045 323.908 463.043C323.73 463.043 323.556 463.052 323.381 463.051C323.372 463.038 323.357 463.027 323.354 463.014C323.35 462.998 323.342 462.986 323.344 462.972C324.417 459.501 325.488 456.027 326.556 452.536C318.751 449.895 310.941 447.377 303.083 444.972C303.121 444.799 303.158 444.638 303.194 444.46C300.286 443.573 297.384 442.7 294.449 441.837C293.422 445.818 292.378 449.804 291.322 453.799C290.936 453.607 290.592 453.422 290.217 453.287C290.004 453.211 289.806 453.061 289.574 453.025C288.875 452.91 288.174 452.757 287.49 452.953C287.379 452.98 287.262 452.996 287.121 453.026C287.241 452.56 287.364 452.09 287.487 451.612C287.325 451.561 287.189 451.523 287.016 451.471C287.126 451.041 287.219 450.624 287.347 450.215C287.391 450.074 287.381 449.915 287.331 449.806C287.082 449.272 287.003 448.697 286.767 448.159C286.718 448.056 286.68 447.943 286.741 447.829C286.775 447.769 286.782 447.695 286.797 447.623C289.47 437.091 292.072 426.531 294.601 415.926C294.396 415.825 294.165 415.787 293.948 415.717C293.723 415.652 293.499 415.593 293.23 415.514C293.423 415.145 293.692 414.866 293.994 414.577C293.804 414.523 293.619 414.469 293.42 414.413C293.501 414.061 293.572 413.744 293.644 413.44C294.027 413.191 294.404 412.942 294.791 412.685C293.677 412.032 292.59 411.397 291.459 410.749C291.581 410.232 291.707 409.675 291.84 409.105C291.628 409.049 291.453 408.998 291.243 408.941C291.124 409.464 291.002 409.988 290.873 410.535C290.506 410.436 290.294 410.17 290.003 410.014C289.709 409.865 289.443 409.67 289.124 409.471C289.782 406.595 290.438 403.697 291.087 400.795Z" fill="white"/>
    </g>
  </g>
</svg>